<svg xmlns="http://www.w3.org/2000/svg" width="1000" height="1000" viewBox="0 0 1000 1000" version="1.1"><path d="M 461.447 250.084 C 443.462 252.185, 421.818 258.739, 404.500 267.328 C 394.277 272.398, 379.227 281.884, 373.117 287.108 C 361.415 297.114, 356.879 301.528, 350.180 309.428 C 343.310 317.529, 337 326.144, 337 327.424 C 337 327.680, 372.663 328.051, 416.250 328.249 L 495.500 328.607 504.902 331.325 C 521.889 336.235, 534.077 343.255, 546.206 355.117 C 559.268 367.891, 567.184 381.127, 572.165 398.518 C 574.136 405.403, 574.441 408.700, 574.384 422.500 C 574.324 436.927, 574.051 439.385, 571.599 447.500 C 568.439 457.958, 562.045 470.495, 555.597 478.874 C 551.014 484.830, 538.430 497, 536.855 497 C 536.385 497, 536 497.679, 536 498.509 C 536 499.838, 541.997 499.988, 586.235 499.759 L 636.471 499.500 638.849 494.500 C 649.593 471.910, 656.176 438.435, 654.583 414.500 C 651.510 368.338, 634.433 330.095, 603.005 299 C 570.627 266.965, 525.647 248.645, 480.564 249.130 C 473.929 249.201, 465.326 249.630, 461.447 250.084 M 326.654 344.750 C 326.399 345.163, 348.904 345.379, 376.665 345.232 C 415.073 345.028, 426.967 345.244, 426.416 346.136 C 425.963 346.869, 426.124 347.042, 426.845 346.595 C 427.480 346.203, 428 345.459, 428 344.941 C 428 343.814, 327.350 343.625, 326.654 344.750 M 449 607.692 C 436.143 609.850, 429.070 616.726, 426.984 629.097 C 424.843 641.789, 428.653 653.580, 436.573 658.772 C 442.517 662.668, 450.901 663.969, 470.179 663.985 C 484.930 663.998, 488.117 663.740, 489.429 662.429 C 491.250 660.607, 491.379 659.126, 490.025 655.565 C 489.222 653.453, 488.400 653, 485.370 653 C 481.954 653, 481.799 652.875, 483.208 651.250 C 486.636 647.299, 488.269 640.356, 487.814 631.675 C 487.441 624.578, 486.929 622.597, 484.451 618.681 C 478.840 609.811, 463.924 605.187, 449 607.692 M 451.500 619.171 C 444.629 621.668, 442 626.270, 442 635.802 C 442 646.992, 447.128 652.471, 457.536 652.400 C 466.894 652.336, 471.890 647.095, 472.692 636.500 C 473.063 631.596, 472.722 629.678, 470.823 626 C 469.545 623.525, 467.375 620.975, 466 620.334 C 462.166 618.545, 454.839 617.957, 451.500 619.171 M 497 621.567 C 500.359 622.318, 507.778 622.449, 507.346 621.750 C 507.091 621.337, 504.321 621.052, 501.191 621.116 C 498.061 621.180, 496.175 621.383, 497 621.567 M 494.199 639.668 C 494.089 649.111, 493.765 657.449, 493.478 658.197 C 493.191 658.945, 493.528 660.342, 494.228 661.302 C 495.277 662.741, 495.454 660.717, 495.240 649.773 C 494.770 625.807, 494.401 622.220, 494.199 639.668 M 651.389 648.500 C 651.390 655.650, 651.550 658.444, 651.742 654.708 C 651.935 650.973, 651.934 645.123, 651.739 641.708 C 651.545 638.294, 651.387 641.350, 651.389 648.500 M 563.385 649 C 563.385 655.875, 563.545 658.688, 563.740 655.250 C 563.936 651.813, 563.936 646.188, 563.740 642.750 C 563.545 639.313, 563.385 642.125, 563.385 649 M 591.296 646.744 C 595.583 646.932, 602.333 646.931, 606.296 646.742 C 610.258 646.552, 606.750 646.399, 598.500 646.400 C 590.250 646.401, 587.008 646.556, 591.296 646.744 M 582 672.830 C 582 673.356, 582.698 674.054, 583.552 674.382 C 584.442 674.723, 584.843 674.555, 584.493 673.989 C 584.157 673.445, 584.788 673, 585.895 673 C 587.677 673, 587.952 673.776, 588.284 679.750 L 588.660 686.500 588.580 679.500 L 588.500 672.500 585.250 672.187 C 583.462 672.014, 582 672.304, 582 672.830 M 658 673.046 C 656.901 673.790, 657.273 673.880, 659.394 673.386 C 662.103 672.754, 662.256 672.880, 661.783 675.355 C 661.505 676.810, 661.665 678, 662.139 678 C 662.612 678, 663 676.650, 663 675 C 663 671.813, 660.986 671.025, 658 673.046 M 575.320 681 C 575.320 684.575, 575.502 686.038, 575.723 684.250 C 575.945 682.462, 575.945 679.538, 575.723 677.750 C 575.502 675.962, 575.320 677.425, 575.320 681 M 606.310 681.500 C 606.315 684.800, 606.502 686.029, 606.725 684.232 C 606.947 682.435, 606.943 679.735, 606.715 678.232 C 606.486 676.729, 606.304 678.200, 606.310 681.500" stroke="none" fill="#2b4cf3" fill-rule="evenodd"/><path d="M 324.484 350.750 C 323.019 353.913, 320.082 361.675, 317.958 368 C 293.545 440.683, 321.572 522.500, 385.500 565.169 C 403.481 577.171, 429.091 587.752, 449 591.406 C 466.211 594.564, 483.443 595, 591.145 595 L 699 595 698.983 590.250 C 698.942 578.999, 693.772 563.262, 686.294 551.622 C 680.574 542.720, 673.152 535.365, 663.587 529.120 C 654.473 523.171, 647.654 520.448, 635.500 517.908 C 627.146 516.161, 621.003 516.025, 549.860 516.013 C 466.683 515.999, 465.351 515.924, 449.650 510.344 C 421.960 500.504, 399.209 475.948, 390.962 447 C 388.208 437.333, 387.243 417.995, 388.977 407.239 C 392.429 385.830, 404.212 364.423, 419.636 351.540 C 422.861 348.846, 425.928 346.272, 426.450 345.821 C 426.973 345.369, 404.843 345, 377.273 345 L 327.147 345 324.484 350.750 M 387.500 622.209 C 382.037 624.124, 378.299 629.011, 379.635 632.491 C 380.566 634.917, 388.461 634.459, 392.099 631.768 C 396.173 628.756, 402.663 628.865, 405.191 631.988 C 408.572 636.163, 407.695 636.738, 397.250 637.186 C 382.489 637.819, 376.667 641.585, 376.667 650.500 C 376.667 658.767, 382.906 663.430, 394 663.455 C 398.213 663.465, 401.694 662.861, 403.893 661.740 C 406.952 660.181, 407.399 660.164, 408.427 661.569 C 409.256 662.704, 410.916 663.042, 414.533 662.814 L 419.500 662.500 419.500 646.821 C 419.500 628.858, 418.944 627.320, 410.980 623.250 C 407.436 621.439, 405.008 621.015, 398.538 621.079 C 394.117 621.122, 389.150 621.631, 387.500 622.209 M 511.732 623.407 C 508.352 625.701, 508.161 625.724, 507.686 623.907 C 507.264 622.293, 506.247 622, 501.073 622 L 494.959 622 495.229 642.250 L 495.500 662.500 501.500 662.500 L 507.500 662.500 507.777 648.301 C 508.050 634.338, 508.097 634.068, 510.662 632.051 C 514.140 629.315, 518.460 629.391, 520.443 632.223 C 521.654 633.951, 522 637.269, 522 647.141 C 522 654.123, 522.273 660.548, 522.607 661.418 C 523.064 662.610, 524.650 663, 529.040 663 C 536.263 663, 536.253 663.026, 535.865 646.850 L 535.576 634.762 538.344 632.381 C 541.482 629.681, 544.717 629.343, 547.559 631.417 C 549.286 632.677, 549.555 634.470, 550 647.667 L 550.500 662.500 556.500 662.500 L 562.500 662.500 562.762 647.500 C 563.060 630.452, 562.200 627.359, 556 623.181 C 550.923 619.760, 542.727 620.421, 536.719 624.736 C 532.484 627.777, 532.357 627.802, 531.138 625.850 C 528.008 620.837, 517.473 619.511, 511.732 623.407 M 582.500 622.451 C 571.240 626.576, 566.643 641.014, 572.750 653.071 C 576.816 661.099, 581.636 663.512, 593.500 663.461 C 600.359 663.431, 603.448 662.955, 606.486 661.461 C 610.839 659.319, 613.700 655.266, 612.699 652.657 C 611.773 650.245, 603.950 650.450, 599.774 652.996 C 593.351 656.912, 584 654.204, 584 648.427 L 584 646 599.137 646 L 614.274 646 613.750 639.470 C 613.114 631.549, 609.959 626.177, 604.339 623.448 C 599.317 621.009, 587.864 620.486, 582.500 622.451 M 639.462 623.019 C 635.898 624.837, 635.386 624.881, 634.352 623.466 C 633.483 622.278, 631.774 621.968, 627.351 622.197 L 621.500 622.500 621.215 640.500 C 621.059 650.400, 621.180 659.513, 621.485 660.750 C 621.982 662.771, 622.647 663, 628.019 663 C 632.613 663, 634.029 662.652, 634.125 661.500 C 634.194 660.675, 634.362 659.550, 634.500 659 C 634.638 658.450, 634.820 652.712, 634.906 646.250 C 635.058 634.894, 635.148 634.438, 637.610 632.644 C 641.700 629.664, 647.121 629.372, 649.506 632.003 C 651.241 633.918, 651.565 636.042, 652 648.352 L 652.500 662.500 658.500 662.500 L 664.500 662.500 664.500 647 C 664.500 633.512, 664.252 631.090, 662.590 628.344 C 658.366 621.365, 647.579 618.881, 639.462 623.019 M 589.500 629.705 C 586.586 630.448, 585.284 631.747, 584.130 635.058 L 583.104 638 592.119 638 C 601.001 638, 601.125 637.967, 600.463 635.750 C 599.080 631.121, 594.294 628.481, 589.500 629.705 M 390.570 648.204 C 389.257 650.078, 389.228 650.713, 390.377 652.454 C 392.158 655.153, 397.195 655.579, 402.659 653.492 C 406.409 652.060, 407 651.438, 407 648.917 L 407 646 399.557 646 C 393.018 646, 391.926 646.268, 390.570 648.204 M 565.566 664.898 C 564.237 665.418, 564.003 665.884, 564.816 666.387 C 566.516 667.437, 566.454 687.650, 564.750 688.338 C 564.063 688.615, 565.300 688.842, 567.500 688.842 C 569.700 688.842, 570.938 688.615, 570.250 688.338 C 569.348 687.974, 569 684.514, 569 675.917 C 569 669.362, 568.663 664.032, 568.250 664.070 C 567.837 664.109, 566.630 664.481, 565.566 664.898 M 595.220 670.899 C 593.966 672.604, 593.384 674, 593.926 674 C 594.469 674, 595.045 677.263, 595.206 681.250 C 595.480 688.013, 595.659 688.522, 597.865 688.835 C 599.166 689.019, 600.719 688.681, 601.315 688.085 C 602.095 687.305, 601.781 687, 600.200 687 C 598.162 687, 598 686.528, 598 680.573 C 598 675.294, 598.312 674.065, 599.750 673.689 C 601.316 673.280, 601.323 673.220, 599.816 673.116 C 598.791 673.045, 598.009 671.983, 597.816 670.399 L 597.500 667.797 595.220 670.899 M 533 674 C 531.900 675.100, 531 676.450, 531 677 C 531 678.122, 533.539 680.621, 537.367 683.268 C 538.914 684.338, 539.699 685.621, 539.355 686.518 C 538.570 688.564, 534.322 688.382, 533.080 686.250 C 532.158 684.667, 532.058 684.704, 532.030 686.633 C 531.962 691.455, 541.239 689.696, 541.811 684.778 C 542.067 682.585, 541.390 681.640, 538.061 679.539 C 534.179 677.088, 532.955 674.764, 534.910 673.556 C 536.371 672.653, 538.661 673.941, 539.806 676.308 C 540.841 678.450, 540.866 678.440, 540.932 675.867 C 540.982 673.950, 540.388 673.069, 538.750 672.630 C 535.455 671.747, 535.189 671.811, 533 674 M 550.357 672.992 C 542.076 676.333, 544.057 689, 552.860 689 C 560.378 689, 563.562 680.408, 558.077 674.923 C 555.011 671.857, 553.874 671.572, 550.357 672.992 M 606.120 673.436 C 604.155 674.487, 604.033 674.799, 605.383 675.317 C 607.784 676.238, 607.676 686.507, 605.250 687.920 C 603.881 688.717, 604.479 688.929, 608 688.891 C 610.475 688.864, 611.938 688.615, 611.250 688.338 C 610.409 687.998, 610 685.426, 610 680.476 C 610 676.429, 609.657 672.906, 609.237 672.647 C 608.818 672.388, 607.415 672.743, 606.120 673.436 M 618.831 673.506 C 615.871 675.140, 613.573 680.652, 614.625 683.597 C 616.751 689.554, 623.725 691.050, 628.026 686.473 C 634.426 679.660, 626.903 669.051, 618.831 673.506 M 635 673.534 C 633.625 674.301, 633.063 674.945, 633.750 674.965 C 634.616 674.989, 635 676.969, 635 681.417 C 635 685.614, 634.568 688.008, 633.750 688.338 C 633.063 688.615, 634.525 688.864, 637 688.891 C 640.521 688.929, 641.119 688.717, 639.750 687.920 C 637 686.318, 637.306 677.600, 640.182 675.585 C 643.531 673.239, 645 675.206, 645 682.039 C 645 685.739, 644.548 688.016, 643.750 688.338 C 643.063 688.615, 644.278 688.878, 646.450 688.921 C 649.522 688.982, 650.133 688.733, 649.200 687.800 C 648.540 687.140, 648 684.022, 648 680.871 C 648 676.997, 647.491 674.634, 646.429 673.571 C 644.510 671.653, 644.571 671.653, 641.022 673.489 C 638.558 674.763, 638.096 674.773, 637.821 673.558 C 637.545 672.340, 637.147 672.336, 635 673.534 M 654.518 673.625 C 652.111 676.032, 653.053 679.131, 657 681.784 C 660.951 684.441, 661.600 687.343, 658.347 687.807 C 656.997 687.999, 655.597 687.263, 654.597 685.834 L 653 683.555 653 686.164 C 653 688.277, 653.550 688.854, 655.894 689.198 C 659.747 689.763, 662.609 688.604, 663.231 686.225 C 663.929 683.556, 662.606 681.538, 658.494 678.996 C 654.680 676.639, 654.021 674.590, 656.741 673.546 C 657.891 673.105, 659.080 673.615, 660.241 675.050 C 661.939 677.146, 662 677.152, 662 675.227 C 662 674.005, 661.130 673, 659.750 672.630 C 656.554 671.774, 656.326 671.817, 654.518 673.625 M 574.824 674.288 C 575.412 674.997, 576.030 678.484, 576.197 682.038 C 576.490 688.293, 576.590 688.510, 579.310 688.822 C 580.856 688.999, 582.725 688.643, 583.463 688.031 C 584.450 687.212, 584.904 687.212, 585.178 688.034 C 585.414 688.741, 586.596 688.888, 588.401 688.436 C 590.760 687.844, 590.971 687.563, 589.626 686.810 C 588.387 686.117, 588 684.366, 588 679.450 C 588 673.975, 587.736 673, 586.250 672.998 C 584.756 672.997, 584.500 673.984, 584.500 679.748 C 584.500 686.104, 584.360 686.520, 582.113 686.837 C 578.891 687.293, 578.155 685.731, 578.342 678.838 C 578.491 673.314, 578.372 672.998, 576.128 672.999 C 574.305 673, 574.003 673.299, 574.824 674.288 M 548.927 676.137 C 547.643 678.536, 548.291 684.441, 550.074 686.589 C 551.843 688.721, 555.762 688.314, 557.073 685.863 C 558.357 683.464, 557.709 677.559, 555.926 675.411 C 554.157 673.279, 550.238 673.686, 548.927 676.137 M 618.607 675.582 C 618.273 676.452, 618 678.857, 618 680.927 C 618 686.478, 622.633 689.967, 625.800 686.800 C 627.704 684.896, 627.291 677.573, 625.171 675.655 C 622.854 673.558, 619.398 673.520, 618.607 675.582" stroke="none" fill="#5ce2e3" fill-rule="evenodd"/></svg>